HIERARCHY
ROOT Hips
{
	OFFSET 0.000000 97.167313 0.000000
	CHANNELS 6 Xposition Yposition Zposition Xrotation Yrotation Zrotation
	JOINT Spine
	{
		OFFSET 0.000000 13.784798 0.064400
		CHANNELS 3 Xrotation Yrotation Zrotation
		JOINT Spine1
		{
			OFFSET 0.000000 12.037903 0.404700
			CHANNELS 3 Xrotation Yrotation Zrotation
			JOINT Spine2
			{
				OFFSET 0.000000 17.795601 0.420200
				CHANNELS 3 Xrotation Yrotation Zrotation
				JOINT Neck
				{
					OFFSET 0.000000 39.131302 11.954600
					CHANNELS 3 Xrotation Yrotation Zrotation
					JOINT Head
					{
						OFFSET 0.000000 14.456192 15.627699
						CHANNELS 3 Xrotation Yrotation Zrotation
						JOINT HeadTop_End
						{
							OFFSET 0.000000 15.703506 7.603401
							CHANNELS 3 Xrotation Yrotation Zrotation
							End Site
							{
								OFFSET 0.000000 17.447403 0.000000
							}
						}
					}
				}
				JOINT LeftShoulder
				{
					OFFSET 17.399500 24.608795 1.168800
					CHANNELS 3 Xrotation Yrotation Zrotation
					JOINT LeftArm
					{
						OFFSET 18.980635 5.765305 1.818600
						CHANNELS 3 Xrotation Yrotation Zrotation
						JOINT LeftForeArm
						{
							OFFSET 49.290169 0.000000 0.000000
							CHANNELS 3 Xrotation Yrotation Zrotation
							JOINT LeftHand
							{
								OFFSET 31.562012 0.000000 0.000000
								CHANNELS 3 Xrotation Yrotation Zrotation
								JOINT LeftHandThumb1
								{
									OFFSET 6.133995 -4.388519 7.076070
									CHANNELS 3 Xrotation Yrotation Zrotation
									JOINT LeftHandThumb2
									{
										OFFSET 6.037666 -3.485840 3.485847
										CHANNELS 3 Xrotation Yrotation Zrotation
										JOINT LeftHandThumb3
										{
											OFFSET 6.496506 -3.750763 3.750761
											CHANNELS 3 Xrotation Yrotation Zrotation
											JOINT LeftHandThumb4
											{
												OFFSET 5.616882 -3.242905 3.242910
												CHANNELS 3 Xrotation Yrotation Zrotation
												End Site
												{
													OFFSET -1.254608 7.132141 0.375429
												}
											}
										}
									}
								}
								JOINT LeftHandPinky1
								{
									OFFSET 18.920792 -0.453171 -11.426712
									CHANNELS 3 Xrotation Yrotation Zrotation
									JOINT LeftHandPinky2
									{
										OFFSET 4.919586 0.000000 0.000000
										CHANNELS 3 Xrotation Yrotation Zrotation
										JOINT LeftHandPinky3
										{
											OFFSET 5.233047 0.000000 0.000000
											CHANNELS 3 Xrotation Yrotation Zrotation
											JOINT LeftHandPinky4
											{
												OFFSET 5.571716 0.000000 0.000000
												CHANNELS 3 Xrotation Yrotation Zrotation
												End Site
												{
													OFFSET -3.459808 4.342407 -0.466164
												}
											}
										}
									}
								}
								JOINT LeftHandRing1
								{
									OFFSET 22.726120 -0.094986 -6.500475
									CHANNELS 3 Xrotation Yrotation Zrotation
									JOINT LeftHandRing2
									{
										OFFSET 6.408615 0.000000 0.000000
										CHANNELS 3 Xrotation Yrotation Zrotation
										JOINT LeftHandRing3
										{
											OFFSET 6.150223 0.000000 0.000000
											CHANNELS 3 Xrotation Yrotation Zrotation
											JOINT LeftHandRing4
											{
												OFFSET 6.145386 0.000000 0.000000
												CHANNELS 3 Xrotation Yrotation Zrotation
												End Site
												{
													OFFSET -3.671402 4.923981 -0.202372
												}
											}
										}
									}
								}
								JOINT LeftHandMiddle1
								{
									OFFSET 23.373947 0.000000 0.000001
									CHANNELS 3 Xrotation Yrotation Zrotation
									JOINT LeftHandMiddle2
									{
										OFFSET 6.996567 0.000000 0.000000
										CHANNELS 3 Xrotation Yrotation Zrotation
										JOINT LeftHandMiddle3
										{
											OFFSET 7.015945 0.000000 0.000000
											CHANNELS 3 Xrotation Yrotation Zrotation
											JOINT LeftHandMiddle4
											{
												OFFSET 7.721573 0.000000 0.000000
												CHANNELS 3 Xrotation Yrotation Zrotation
												End Site
												{
													OFFSET -4.651108 6.158463 0.251582
												}
											}
										}
									}
								}
								JOINT LeftHandIndex1
								{
									OFFSET 21.310577 -0.490082 6.209344
									CHANNELS 3 Xrotation Yrotation Zrotation
									JOINT LeftHandIndex2
									{
										OFFSET 7.536453 0.000000 0.000000
										CHANNELS 3 Xrotation Yrotation Zrotation
										JOINT LeftHandIndex3
										{
											OFFSET 7.512344 0.000000 0.000000
											CHANNELS 3 Xrotation Yrotation Zrotation
											JOINT LeftHandIndex4
											{
												OFFSET 10.212402 0.000000 0.000001
												CHANNELS 3 Xrotation Yrotation Zrotation
												End Site
												{
													OFFSET -5.180801 8.690506 1.388433
												}
											}
										}
									}
								}
							}
						}
					}
				}
				JOINT RightShoulder
				{
					OFFSET -17.399500 24.608795 1.168800
					CHANNELS 3 Xrotation Yrotation Zrotation
					JOINT RightArm
					{
						OFFSET -18.980635 5.765305 1.818600
						CHANNELS 3 Xrotation Yrotation Zrotation
						JOINT RightForeArm
						{
							OFFSET -49.290169 0.000000 0.000000
							CHANNELS 3 Xrotation Yrotation Zrotation
							JOINT RightHand
							{
								OFFSET -31.562012 0.000000 0.000000
								CHANNELS 3 Xrotation Yrotation Zrotation
								JOINT RightHandThumb1
								{
									OFFSET -6.133995 -4.388519 7.076070
									CHANNELS 3 Xrotation Yrotation Zrotation
									JOINT RightHandThumb2
									{
										OFFSET -6.037666 -3.485840 3.485847
										CHANNELS 3 Xrotation Yrotation Zrotation
										JOINT RightHandThumb3
										{
											OFFSET -6.496506 -3.750763 3.750761
											CHANNELS 3 Xrotation Yrotation Zrotation
											JOINT RightHandThumb4
											{
												OFFSET -5.616882 -3.242905 3.242910
												CHANNELS 3 Xrotation Yrotation Zrotation
												End Site
												{
													OFFSET 1.254608 7.132141 0.375429
												}
											}
										}
									}
								}
								JOINT RightHandIndex1
								{
									OFFSET -21.310577 -0.490082 6.209344
									CHANNELS 3 Xrotation Yrotation Zrotation
									JOINT RightHandIndex2
									{
										OFFSET -7.536453 0.000000 0.000000
										CHANNELS 3 Xrotation Yrotation Zrotation
										JOINT RightHandIndex3
										{
											OFFSET -7.512344 0.000000 0.000000
											CHANNELS 3 Xrotation Yrotation Zrotation
											JOINT RightHandIndex4
											{
												OFFSET -10.212402 0.000000 0.000001
												CHANNELS 3 Xrotation Yrotation Zrotation
												End Site
												{
													OFFSET 5.180801 8.690506 1.388433
												}
											}
										}
									}
								}
								JOINT RightHandMiddle1
								{
									OFFSET -23.373947 0.000000 0.000001
									CHANNELS 3 Xrotation Yrotation Zrotation
									JOINT RightHandMiddle2
									{
										OFFSET -6.996567 0.000000 0.000000
										CHANNELS 3 Xrotation Yrotation Zrotation
										JOINT RightHandMiddle3
										{
											OFFSET -7.015945 0.000000 0.000000
											CHANNELS 3 Xrotation Yrotation Zrotation
											JOINT RightHandMiddle4
											{
												OFFSET -7.721573 0.000000 0.000000
												CHANNELS 3 Xrotation Yrotation Zrotation
												End Site
												{
													OFFSET 4.651108 6.158463 0.251582
												}
											}
										}
									}
								}
								JOINT RightHandRing1
								{
									OFFSET -22.726120 -0.094986 -6.500475
									CHANNELS 3 Xrotation Yrotation Zrotation
									JOINT RightHandRing2
									{
										OFFSET -6.408615 0.000000 0.000000
										CHANNELS 3 Xrotation Yrotation Zrotation
										JOINT RightHandRing3
										{
											OFFSET -6.150223 0.000000 0.000000
											CHANNELS 3 Xrotation Yrotation Zrotation
											JOINT RightHandRing4
											{
												OFFSET -6.145386 0.000000 0.000000
												CHANNELS 3 Xrotation Yrotation Zrotation
												End Site
												{
													OFFSET 3.671402 4.923981 -0.202372
												}
											}
										}
									}
								}
								JOINT RightHandPinky1
								{
									OFFSET -18.920792 -0.453171 -11.426712
									CHANNELS 3 Xrotation Yrotation Zrotation
									JOINT RightHandPinky2
									{
										OFFSET -4.919586 0.000000 0.000000
										CHANNELS 3 Xrotation Yrotation Zrotation
										JOINT RightHandPinky3
										{
											OFFSET -5.233047 0.000000 0.000000
											CHANNELS 3 Xrotation Yrotation Zrotation
											JOINT RightHandPinky4
											{
												OFFSET -5.571716 0.000000 0.000000
												CHANNELS 3 Xrotation Yrotation Zrotation
												End Site
												{
													OFFSET 3.459808 4.342407 -0.466164
												}
											}
										}
									}
								}
							}
						}
					}
				}
			}
		}
	}
	JOINT LeftUpLeg
	{
		OFFSET 19.899099 -7.885101 -3.429500
		CHANNELS 3 Xrotation Yrotation Zrotation
		JOINT LeftLeg
		{
			OFFSET 1.745560 -36.997807 10.304700
			CHANNELS 3 Xrotation Yrotation Zrotation
			JOINT LeftFoot
			{
				OFFSET -1.745558 -29.803308 -13.615400
				CHANNELS 3 Xrotation Yrotation Zrotation
				JOINT LeftToeBase
				{
					OFFSET 1.181900 -18.539904 15.226099
					CHANNELS 3 Xrotation Yrotation Zrotation
					JOINT LeftToe_End
					{
						OFFSET -0.863701 1.402801 16.534700
						CHANNELS 3 Xrotation Yrotation Zrotation
						End Site
						{
							OFFSET 0.000000 16.616566 0.000000
						}
					}
				}
			}
		}
	}
	JOINT RightUpLeg
	{
		OFFSET -19.899099 -7.885101 -3.429500
		CHANNELS 3 Xrotation Yrotation Zrotation
		JOINT RightLeg
		{
			OFFSET -1.745560 -36.997807 10.304700
			CHANNELS 3 Xrotation Yrotation Zrotation
			JOINT RightFoot
			{
				OFFSET 1.745558 -29.803308 -13.615400
				CHANNELS 3 Xrotation Yrotation Zrotation
				JOINT RightToeBase
				{
					OFFSET -1.181900 -18.539904 15.226099
					CHANNELS 3 Xrotation Yrotation Zrotation
					JOINT RightToe_End
					{
						OFFSET 0.863701 1.402801 16.534700
						CHANNELS 3 Xrotation Yrotation Zrotation
						End Site
						{
							OFFSET 0.000000 16.616566 0.000000
						}
					}
				}
			}
		}
	}
}
MOTION
Frames: 4
Frame Time: 0.033333
0.811797 115.827103 7.243767 -89.651526 0.348916 0.689812 1.066841 -1.171287 0.976940 -0.317510 -2.434543 0.230485 -0.303421 -2.418348 0.331941 -10.007540 0.102136 -1.808069 8.692151 -2.170254 1.510697 0.000000 -0.000000 -0.000000 0.422252 -0.102939 -3.997467 35.263693 -28.378548 -54.538384 0.000007 -80.454192 -0.000024 -13.958259 -3.109596 -10.085386 6.590540 -4.958668 16.122651 7.178876 21.567323 2.147294 -3.980854 36.507501 21.976036 0.000001 0.000001 -0.000001 2.123418 10.735859 -14.817569 0.167501 1.392252 -13.719345 0.169812 1.401710 -13.814458 0.000002 0.000005 -0.000000 2.098716 8.644300 -21.209679 0.169791 1.401611 -13.813542 0.169795 1.401623 -13.813533 0.000000 -0.000001 0.000003 1.376917 6.461959 -24.994172 0.169872 1.401956 -13.817115 0.169791 1.401617 -13.813561 0.000003 -0.000001 -0.000001 0.659525 4.932355 -26.024477 0.169793 1.401616 -13.813539 0.169793 1.401618 -13.813542 0.000001 0.000003 0.000002 0.649931 1.782630 13.882406 39.542960 30.913344 33.651666 0.000240 101.347822 -0.000234 -34.905340 -9.303374 11.136938 -13.120803 7.811745 -0.089401 7.918293 -27.751661 -3.100772 -2.785679 -37.960672 -21.297249 0.000005 0.000000 0.000001 2.082845 12.897809 37.347444 0.497060 -2.095298 26.687152 0.497041 -2.095298 26.687154 -0.000000 -0.000003 -0.000001 -4.321312 1.650229 38.533482 0.529966 -2.159514 27.573972 0.497629 -2.096484 26.703361 -0.000000 0.000001 -0.000008 -1.394388 -1.262397 31.742006 0.254157 -1.518988 18.997024 0.249593 -1.505617 18.823347 0.000001 -0.000003 0.000003 0.189696 -3.422230 14.147227 0.162223 -1.219716 15.150954 0.162214 -1.219710 15.150958 -0.000000 -0.000000 0.000002 -7.568409 16.342587 22.015624 7.702204 6.124003 -0.665052 29.770568 29.934247 -32.949215 -4.397725 0.000012 -0.000015 0.000001 0.000004 -0.000000 -9.299589 -15.443961 -16.584556 9.889035 -5.338822 -6.611636 39.430539 -29.996500 34.243201 -9.125924 -0.000006 0.000010 -0.000001 -0.000001 0.000001 
0.708407 115.677338 6.889320 -89.869034 0.128211 0.730193 0.771781 -0.500213 1.045103 -0.275897 -2.416735 0.353864 -0.279876 -1.796592 0.499447 -10.075117 0.086724 -1.735862 8.737908 -2.106206 1.449420 -0.000000 0.000000 -0.000000 0.428981 0.113677 -4.727555 34.960316 -28.406108 -51.420905 0.000280 -77.514663 0.000289 -9.793955 -0.247657 -7.616487 6.728212 -4.508523 16.082104 7.178884 21.567331 2.147281 -4.059071 32.978353 21.109419 0.000001 -0.000004 -0.000002 1.966196 10.834895 -15.715821 0.157184 1.349302 -13.288156 0.159949 1.360974 -13.405364 0.000003 -0.000002 -0.000001 2.042951 8.589449 -20.797743 0.159885 1.360703 -13.402495 0.159939 1.360897 -13.404577 -0.000002 0.000000 0.000005 1.198732 6.251697 -22.506061 0.159964 1.361016 -13.405832 0.159927 1.360893 -13.404363 0.000001 -0.000001 0.000006 0.483812 4.537372 -21.792745 0.170436 1.404187 -13.839374 0.138481 1.267551 -12.469425 0.000003 0.000001 -0.000001 0.589896 2.776874 13.293153 39.504308 24.722971 34.854940 0.000145 95.452993 -0.000055 -25.915625 -6.324039 12.366448 -13.120793 7.811746 -0.089424 7.918278 -27.751644 -3.100764 -2.785689 -37.960672 -21.297269 0.000002 0.000000 0.000001 2.076253 12.906233 37.218934 0.475889 -2.052697 26.102415 0.484238 -2.069645 26.334781 -0.000000 -0.000001 -0.000001 -4.293244 1.714191 38.130129 0.507652 -2.116259 26.975767 0.486045 -2.073293 26.384686 -0.000000 0.000003 0.000004 -1.378418 -1.171268 30.888421 0.238787 -1.473583 18.408195 0.234469 -1.460505 18.238874 -0.000002 -0.000003 -0.000002 0.173105 -3.354325 13.287987 0.148427 -1.167607 14.488990 0.148430 -1.167606 14.489000 0.000001 0.000003 0.000003 -7.794307 16.448216 21.229966 8.176361 7.361666 1.608489 29.598505 28.756302 -32.499532 -2.557615 -0.000002 -0.000001 -0.000001 -0.000000 0.000000 -9.339018 -14.573327 -16.965095 9.926876 -6.973237 -5.965999 38.482430 -27.311898 30.767929 -7.124828 -0.000008 -0.000002 -0.000000 -0.000001 0.000001 
0.519253 115.478104 6.842079 -90.099764 -0.110281 0.858175 0.427104 0.213974 1.024964 -0.258657 -2.380017 0.473991 -0.313519 -1.133155 0.669526 -10.252984 0.045795 -1.544119 8.891718 -1.929644 1.278774 -0.000000 -0.000000 -0.000000 0.436517 0.353633 -5.342327 35.591337 -29.464528 -44.714455 0.000101 -70.892057 0.000086 -8.788989 -0.565982 -5.217634 7.041182 -3.565797 15.938217 7.178867 21.567304 2.147301 -4.430494 25.202645 19.278827 -0.000001 0.000001 -0.000001 1.652424 11.070244 -17.703664 0.136957 1.260647 -12.400427 0.140576 1.276922 -12.563125 0.000000 -0.000002 -0.000004 1.929839 8.474368 -19.950180 0.140406 1.276236 -12.556288 0.140559 1.276878 -12.562618 -0.000001 -0.000003 0.000003 0.859591 5.783437 -17.389791 0.140468 1.276519 -12.559153 0.140540 1.276805 -12.561936 -0.000000 -0.000001 0.000002 0.216689 3.689331 -13.090981 0.174882 1.422161 -14.020192 0.083977 0.989448 -9.702524 -0.000001 0.000001 -0.000001 0.542973 3.903711 12.454204 37.256281 20.403754 36.813630 0.000837 85.934216 -0.000807 -16.849245 -3.149536 12.953225 -13.120801 7.811741 -0.089416 7.918290 -27.751666 -3.100752 -2.785679 -37.960709 -21.297281 0.000001 -0.000000 -0.000001 2.038795 12.954959 36.479883 0.427515 -1.950942 24.717748 0.446692 -1.992051 25.275356 -0.000004 -0.000003 0.000001 -4.213092 1.890520 37.011491 0.456620 -2.012936 25.559521 0.450078 -1.999190 25.372481 -0.000004 -0.000002 -0.000001 -1.341291 -0.984461 29.131033 0.204279 -1.365555 17.015309 0.200484 -1.353077 16.854919 -0.000003 -0.000000 -0.000003 0.142146 -3.213749 11.519235 0.119548 -1.049561 12.996657 0.119551 -1.049565 12.996652 0.000002 -0.000001 0.000004 -8.655312 16.246604 20.484726 9.729348 7.874169 4.094185 29.300709 28.486651 -32.674577 -0.716523 -0.000009 0.000003 -0.000001 0.000002 -0.000001 -10.015155 -13.538198 -16.983600 11.469932 -8.123303 -5.556490 37.303010 -24.981861 27.914888 -5.061492 -0.000012 0.000026 0.000001 -0.000001 0.000000 
0.296347 115.283646 6.864464 -90.336102 -0.355899 1.041644 0.128406 0.806797 0.969590 -0.120964 -2.335463 0.594818 -0.350837 -0.678026 0.826085 -10.503743 -0.012683 -1.270154 9.178884 -1.662537 1.018430 0.000000 0.000000 -0.000000 0.450063 0.587438 -5.980909 38.033225 -33.227183 -36.318281 -0.000006 -61.220652 -0.000016 -10.099923 -3.294704 -2.220510 7.385393 -2.743630 15.665397 7.178861 21.567331 2.147314 -5.046192 17.397586 17.480112 -0.000001 0.000002 -0.000003 1.413077 11.324355 -19.721447 0.121256 1.187002 -11.664924 0.125437 1.207057 -11.865324 -0.000000 -0.000002 -0.000001 1.837868 8.376864 -19.248470 0.125221 1.206056 -11.855186 0.125435 1.207016 -11.865053 -0.000003 -0.000003 -0.000000 0.610209 5.358230 -13.157536 0.125277 1.206307 -11.857685 0.125406 1.206920 -11.863968 -0.000002 -0.000002 0.000004 0.095013 2.962695 -5.889803 0.187277 1.470864 -14.511029 0.049035 0.757241 -7.410298 -0.000004 0.000003 0.000001 0.528670 5.007585 11.663936 33.416345 17.677889 39.531185 0.000017 73.379769 -0.000008 -7.753104 0.000028 12.883732 -13.120804 7.811747 -0.089416 7.918303 -27.751656 -3.100754 -2.785700 -37.960702 -21.297288 0.000003 -0.000000 -0.000003 1.946399 13.080979 34.599679 0.373733 -1.829654 23.087320 0.387191 -1.860890 23.505469 -0.000002 -0.000003 -0.000001 -4.078707 2.145925 35.313342 0.399868 -1.889763 23.892642 0.389710 -1.866633 23.582610 -0.000002 0.000002 -0.000004 -1.306205 -0.830565 27.674878 0.167101 -1.237592 15.378649 0.163819 -1.225590 15.225588 -0.000004 -0.000004 -0.000004 0.119768 -3.096572 10.053937 0.092299 -0.923615 11.414180 0.092308 -0.923609 11.414178 0.000000 -0.000006 0.000001 -9.721437 16.124215 19.967886 11.361536 7.537081 6.000350 29.195056 29.045400 -32.866676 1.119837 -0.000004 0.000025 -0.000001 -0.000002 0.000000 -11.146274 -12.523431 -16.584285 13.841969 -8.538571 -5.404728 36.355355 -23.333664 25.947537 -3.309550 0.000010 0.000004 -0.000000 -0.000001 0.000001 
